# 3ds Max Wavefront OBJ Exporter v0.99 - (c)2007 guruware
# File Created: 15.05.2023 20:24:18

mtllib paredesHabitat.mtl

#
# object paredUno
#

v  25.0000 35.0000 -50.0000
v  50.0000 35.0000 -50.0000
v  50.0000 27.5000 -50.0000
v  25.0000 27.5000 -50.0000
v  50.0000 20.0000 -50.0000
v  25.0000 20.0000 -50.0000
v  50.0000 12.5000 -50.0000
v  25.0000 12.5000 -50.0000
v  50.0000 5.0000 -50.0000
v  25.0000 5.0000 -50.0000
v  -0.0000 35.0000 -50.0000
v  -0.0000 27.5000 -50.0000
v  0.0000 20.0000 -50.0000
v  0.0000 12.5000 -50.0000
v  0.0000 5.0000 -50.0000
v  -25.0000 35.0000 -50.0000
v  -25.0000 27.5000 -50.0000
v  -25.0000 20.0000 -50.0000
v  -25.0000 12.5000 -50.0000
v  -25.0000 5.0000 -50.0000
v  -50.0000 35.0000 -50.0000
v  -50.0000 27.5000 -50.0000
v  -50.0000 20.0000 -50.0000
v  -50.0000 12.5000 -50.0000
v  -50.0000 5.0000 -50.0000
# 25 vertices

vn -0.0000 -0.0000 -1.0000
# 1 vertex normals

vt 0.0000 0.2500 0.0000
vt 0.0000 0.0000 0.0000
vt 0.2500 0.0000 0.0000
vt 0.2500 0.2500 0.0000
vt 0.5000 0.0000 0.0000
vt 0.5000 0.2500 0.0000
vt 0.7500 0.0000 0.0000
vt 0.7500 0.2500 0.0000
vt 1.0000 0.0000 0.0000
vt 1.0000 0.2500 0.0000
vt 0.0000 0.5000 0.0000
vt 0.2500 0.5000 0.0000
vt 0.5000 0.5000 0.0000
vt 0.7500 0.5000 0.0000
vt 1.0000 0.5000 0.0000
vt 0.0000 0.7500 0.0000
vt 0.2500 0.7500 0.0000
vt 0.5000 0.7500 0.0000
vt 0.7500 0.7500 0.0000
vt 1.0000 0.7500 0.0000
vt 0.0000 1.0000 0.0000
vt 0.2500 1.0000 0.0000
vt 0.5000 1.0000 0.0000
vt 0.7500 1.0000 0.0000
vt 1.0000 1.0000 0.0000
# 25 texture coords

o paredUno
g paredUno
usemtl derecha
s 1
f 1/1/1 2/2/1 3/3/1 4/4/1 
f 4/4/1 3/3/1 5/5/1 6/6/1 
f 6/6/1 5/5/1 7/7/1 8/8/1 
f 8/8/1 7/7/1 9/9/1 10/10/1 
f 11/11/1 1/1/1 4/4/1 12/12/1 
f 12/12/1 4/4/1 6/6/1 13/13/1 
f 13/13/1 6/6/1 8/8/1 14/14/1 
f 14/14/1 8/8/1 10/10/1 15/15/1 
f 16/16/1 11/11/1 12/12/1 17/17/1 
f 17/17/1 12/12/1 13/13/1 18/18/1 
f 18/18/1 13/13/1 14/14/1 19/19/1 
f 19/19/1 14/14/1 15/15/1 20/20/1 
f 21/21/1 16/16/1 17/17/1 22/22/1 
f 22/22/1 17/17/1 18/18/1 23/23/1 
f 23/23/1 18/18/1 19/19/1 24/24/1 
f 24/24/1 19/19/1 20/20/1 25/25/1 
# 16 polygons

#
# object paredDos
#

v  -25.0000 35.0000 50.0000
v  -50.0000 35.0000 50.0000
v  -50.0000 27.5000 50.0000
v  -25.0000 27.5000 50.0000
v  -50.0000 20.0000 50.0000
v  -25.0000 20.0000 50.0000
v  -50.0000 12.5000 50.0000
v  -25.0000 12.5000 50.0000
v  -50.0000 5.0000 50.0000
v  -25.0000 5.0000 50.0000
v  0.0000 35.0000 50.0000
v  0.0000 27.5000 50.0000
v  0.0000 20.0000 50.0000
v  -0.0000 12.5000 50.0000
v  -0.0000 5.0000 50.0000
v  25.0000 35.0000 50.0000
v  25.0000 27.5000 50.0000
v  25.0000 20.0000 50.0000
v  25.0000 12.5000 50.0000
v  25.0000 5.0000 50.0000
v  50.0000 35.0000 50.0000
v  50.0000 27.5000 50.0000
v  50.0000 20.0000 50.0000
v  50.0000 12.5000 50.0000
v  50.0000 5.0000 50.0000
# 25 vertices

vn -0.0000 0.0000 1.0000
# 1 vertex normals

vt 0.0000 0.2500 0.0000
vt 0.0000 0.0000 0.0000
vt 0.2500 0.0000 0.0000
vt 0.2500 0.2500 0.0000
vt 0.5000 0.0000 0.0000
vt 0.5000 0.2500 0.0000
vt 0.7500 0.0000 0.0000
vt 0.7500 0.2500 0.0000
vt 1.0000 0.0000 0.0000
vt 1.0000 0.2500 0.0000
vt 0.0000 0.5000 0.0000
vt 0.2500 0.5000 0.0000
vt 0.5000 0.5000 0.0000
vt 0.7500 0.5000 0.0000
vt 1.0000 0.5000 0.0000
vt 0.0000 0.7500 0.0000
vt 0.2500 0.7500 0.0000
vt 0.5000 0.7500 0.0000
vt 0.7500 0.7500 0.0000
vt 1.0000 0.7500 0.0000
vt 0.0000 1.0000 0.0000
vt 0.2500 1.0000 0.0000
vt 0.5000 1.0000 0.0000
vt 0.7500 1.0000 0.0000
vt 1.0000 1.0000 0.0000
# 25 texture coords

o paredDos
g paredDos
usemtl izquierda
s 1
f 26/26/2 27/27/2 28/28/2 29/29/2 
f 29/29/2 28/28/2 30/30/2 31/31/2 
f 31/31/2 30/30/2 32/32/2 33/33/2 
f 33/33/2 32/32/2 34/34/2 35/35/2 
f 36/36/2 26/26/2 29/29/2 37/37/2 
f 37/37/2 29/29/2 31/31/2 38/38/2 
f 38/38/2 31/31/2 33/33/2 39/39/2 
f 39/39/2 33/33/2 35/35/2 40/40/2 
f 41/41/2 36/36/2 37/37/2 42/42/2 
f 42/42/2 37/37/2 38/38/2 43/43/2 
f 43/43/2 38/38/2 39/39/2 44/44/2 
f 44/44/2 39/39/2 40/40/2 45/45/2 
f 46/46/2 41/41/2 42/42/2 47/47/2 
f 47/47/2 42/42/2 43/43/2 48/48/2 
f 48/48/2 43/43/2 44/44/2 49/49/2 
f 49/49/2 44/44/2 45/45/2 50/50/2 
# 16 polygons

#
# object paredTres
#

v  -50.0000 5.0000 25.0000
v  -50.0000 5.0000 50.0000
v  -50.0000 12.5000 50.0000
v  -50.0000 12.5000 25.0000
v  -50.0000 20.0000 50.0000
v  -50.0000 20.0000 25.0000
v  -50.0000 27.5000 50.0000
v  -50.0000 27.5000 25.0000
v  -50.0000 35.0000 50.0000
v  -50.0000 35.0000 25.0000
v  -50.0000 5.0000 -0.0000
v  -50.0000 12.5000 -0.0000
v  -50.0000 20.0000 -0.0000
v  -50.0000 27.5000 -0.0000
v  -50.0000 35.0000 -0.0000
v  -50.0000 5.0000 -25.0000
v  -50.0000 12.5000 -25.0000
v  -50.0000 20.0000 -25.0000
v  -50.0000 27.5000 -25.0000
v  -50.0000 35.0000 -25.0000
v  -50.0000 5.0000 -50.0000
v  -50.0000 12.5000 -50.0000
v  -50.0000 20.0000 -50.0000
v  -50.0000 27.5000 -50.0000
v  -50.0000 35.0000 -50.0000
# 25 vertices

vn -1.0000 0.0000 0.0000
# 1 vertex normals

vt 0.0000 0.2500 0.0000
vt 0.0000 0.0000 0.0000
vt 0.2500 0.0000 0.0000
vt 0.2500 0.2500 0.0000
vt 0.5000 0.0000 0.0000
vt 0.5000 0.2500 0.0000
vt 0.7500 0.0000 0.0000
vt 0.7500 0.2500 0.0000
vt 1.0000 0.0000 0.0000
vt 1.0000 0.2500 0.0000
vt 0.0000 0.5000 0.0000
vt 0.2500 0.5000 0.0000
vt 0.5000 0.5000 0.0000
vt 0.7500 0.5000 0.0000
vt 1.0000 0.5000 0.0000
vt 0.0000 0.7500 0.0000
vt 0.2500 0.7500 0.0000
vt 0.5000 0.7500 0.0000
vt 0.7500 0.7500 0.0000
vt 1.0000 0.7500 0.0000
vt 0.0000 1.0000 0.0000
vt 0.2500 1.0000 0.0000
vt 0.5000 1.0000 0.0000
vt 0.7500 1.0000 0.0000
vt 1.0000 1.0000 0.0000
# 25 texture coords

o paredTres
g paredTres
usemtl interior
s 1
f 51/51/3 52/52/3 53/53/3 54/54/3 
f 54/54/3 53/53/3 55/55/3 56/56/3 
f 56/56/3 55/55/3 57/57/3 58/58/3 
f 58/58/3 57/57/3 59/59/3 60/60/3 
f 61/61/3 51/51/3 54/54/3 62/62/3 
f 62/62/3 54/54/3 56/56/3 63/63/3 
f 63/63/3 56/56/3 58/58/3 64/64/3 
f 64/64/3 58/58/3 60/60/3 65/65/3 
f 66/66/3 61/61/3 62/62/3 67/67/3 
f 67/67/3 62/62/3 63/63/3 68/68/3 
f 68/68/3 63/63/3 64/64/3 69/69/3 
f 69/69/3 64/64/3 65/65/3 70/70/3 
f 71/71/3 66/66/3 67/67/3 72/72/3 
f 72/72/3 67/67/3 68/68/3 73/73/3 
f 73/73/3 68/68/3 69/69/3 74/74/3 
f 74/74/3 69/69/3 70/70/3 75/75/3 
# 16 polygons

#
# object paredCuatro
#

v  50.0000 35.0000 25.0000
v  50.0000 35.0000 50.0000
v  50.0000 27.5000 50.0000
v  50.0000 27.5000 25.0000
v  50.0000 20.0000 50.0000
v  50.0000 20.0000 25.0000
v  50.0000 12.5000 50.0000
v  50.0000 12.5000 25.0000
v  50.0000 5.0000 50.0000
v  50.0000 5.0000 25.0000
v  50.0000 35.0000 -0.0000
v  50.0000 27.5000 -0.0000
v  50.0000 20.0000 -0.0000
v  50.0000 12.5000 -0.0000
v  50.0000 5.0000 -0.0000
v  50.0000 35.0000 -25.0000
v  50.0000 27.5000 -25.0000
v  50.0000 20.0000 -25.0000
v  50.0000 12.5000 -25.0000
v  50.0000 5.0000 -25.0000
v  50.0000 35.0000 -50.0000
v  50.0000 27.5000 -50.0000
v  50.0000 20.0000 -50.0000
v  50.0000 12.5000 -50.0000
v  50.0000 5.0000 -50.0000
# 25 vertices

vn 1.0000 -0.0000 -0.0000
# 1 vertex normals

vt 0.0000 0.2500 0.0000
vt 0.0000 0.0000 0.0000
vt 0.2500 0.0000 0.0000
vt 0.2500 0.2500 0.0000
vt 0.5000 0.0000 0.0000
vt 0.5000 0.2500 0.0000
vt 0.7500 0.0000 0.0000
vt 0.7500 0.2500 0.0000
vt 1.0000 0.0000 0.0000
vt 1.0000 0.2500 0.0000
vt 0.0000 0.5000 0.0000
vt 0.2500 0.5000 0.0000
vt 0.5000 0.5000 0.0000
vt 0.7500 0.5000 0.0000
vt 1.0000 0.5000 0.0000
vt 0.0000 0.7500 0.0000
vt 0.2500 0.7500 0.0000
vt 0.5000 0.7500 0.0000
vt 0.7500 0.7500 0.0000
vt 1.0000 0.7500 0.0000
vt 0.0000 1.0000 0.0000
vt 0.2500 1.0000 0.0000
vt 0.5000 1.0000 0.0000
vt 0.7500 1.0000 0.0000
vt 1.0000 1.0000 0.0000
# 25 texture coords

o paredCuatro
g paredCuatro
usemtl paredExt
s 1
f 76/76/4 77/77/4 78/78/4 79/79/4 
f 79/79/4 78/78/4 80/80/4 81/81/4 
f 81/81/4 80/80/4 82/82/4 83/83/4 
f 83/83/4 82/82/4 84/84/4 85/85/4 
f 86/86/4 76/76/4 79/79/4 87/87/4 
f 87/87/4 79/79/4 81/81/4 88/88/4 
f 88/88/4 81/81/4 83/83/4 89/89/4 
f 89/89/4 83/83/4 85/85/4 90/90/4 
f 91/91/4 86/86/4 87/87/4 92/92/4 
f 92/92/4 87/87/4 88/88/4 93/93/4 
f 93/93/4 88/88/4 89/89/4 94/94/4 
f 94/94/4 89/89/4 90/90/4 95/95/4 
f 96/96/4 91/91/4 92/92/4 97/97/4 
f 97/97/4 92/92/4 93/93/4 98/98/4 
f 98/98/4 93/93/4 94/94/4 99/99/4 
f 99/99/4 94/94/4 95/95/4 100/100/4 
# 16 polygons

#
# object Plane001
#

v  -50.0000 5.0000 25.0000
v  -50.0000 5.0000 50.0000
v  -25.0000 5.0000 50.0000
v  -25.0000 5.0000 25.0000
v  0.0000 5.0000 50.0000
v  0.0000 5.0000 25.0000
v  25.0000 5.0000 50.0000
v  25.0000 5.0000 25.0000
v  50.0000 5.0000 50.0000
v  50.0000 5.0000 25.0000
v  -50.0000 5.0000 -0.0000
v  -25.0000 5.0000 -0.0000
v  0.0000 5.0000 -0.0000
v  25.0000 5.0000 -0.0000
v  50.0000 5.0000 -0.0000
v  -50.0000 5.0000 -25.0000
v  -25.0000 5.0000 -25.0000
v  0.0000 5.0000 -25.0000
v  25.0000 5.0000 -25.0000
v  50.0000 5.0000 -25.0000
v  -50.0000 5.0000 -50.0000
v  -25.0000 5.0000 -50.0000
v  0.0000 5.0000 -50.0000
v  25.0000 5.0000 -50.0000
v  50.0000 5.0000 -50.0000
# 25 vertices

vn 0.0000 1.0000 -0.0000
# 1 vertex normals

vt 0.0000 0.2500 0.0000
vt 0.0000 0.0000 0.0000
vt 0.2500 0.0000 0.0000
vt 0.2500 0.2500 0.0000
vt 0.5000 0.0000 0.0000
vt 0.5000 0.2500 0.0000
vt 0.7500 0.0000 0.0000
vt 0.7500 0.2500 0.0000
vt 1.0000 0.0000 0.0000
vt 1.0000 0.2500 0.0000
vt 0.0000 0.5000 0.0000
vt 0.2500 0.5000 0.0000
vt 0.5000 0.5000 0.0000
vt 0.7500 0.5000 0.0000
vt 1.0000 0.5000 0.0000
vt 0.0000 0.7500 0.0000
vt 0.2500 0.7500 0.0000
vt 0.5000 0.7500 0.0000
vt 0.7500 0.7500 0.0000
vt 1.0000 0.7500 0.0000
vt 0.0000 1.0000 0.0000
vt 0.2500 1.0000 0.0000
vt 0.5000 1.0000 0.0000
vt 0.7500 1.0000 0.0000
vt 1.0000 1.0000 0.0000
# 25 texture coords

o Plane001
g Plane001
usemtl Material__2
s 1
f 101/101/5 102/102/5 103/103/5 104/104/5 
f 104/104/5 103/103/5 105/105/5 106/106/5 
f 106/106/5 105/105/5 107/107/5 108/108/5 
f 108/108/5 107/107/5 109/109/5 110/110/5 
f 111/111/5 101/101/5 104/104/5 112/112/5 
f 112/112/5 104/104/5 106/106/5 113/113/5 
f 113/113/5 106/106/5 108/108/5 114/114/5 
f 114/114/5 108/108/5 110/110/5 115/115/5 
f 116/116/5 111/111/5 112/112/5 117/117/5 
f 117/117/5 112/112/5 113/113/5 118/118/5 
f 118/118/5 113/113/5 114/114/5 119/119/5 
f 119/119/5 114/114/5 115/115/5 120/120/5 
f 121/121/5 116/116/5 117/117/5 122/122/5 
f 122/122/5 117/117/5 118/118/5 123/123/5 
f 123/123/5 118/118/5 119/119/5 124/124/5 
f 124/124/5 119/119/5 120/120/5 125/125/5 
# 16 polygons

