# 3ds Max Wavefront OBJ Exporter v0.99 - (c)2007 guruware
# File Created: 24.05.2023 09:45:04

mtllib pisoZoo.mtl

#
# object pisoTierra
#

v  -70.0000 0.0000 35.0000
v  -70.0000 0.0000 70.0000
v  -47.5000 0.0000 70.0000
v  -47.5000 0.0000 35.0000
v  -25.0000 0.0000 70.0000
v  -25.0000 0.0000 35.0000
v  -2.5000 0.0000 70.0000
v  -2.5000 0.0000 35.0000
v  20.0000 0.0000 70.0000
v  20.0000 0.0000 35.0000
v  -70.0000 0.0000 -0.0000
v  -47.5000 0.0000 -0.0000
v  -25.0000 0.0000 -0.0000
v  -2.5000 0.0000 -0.0000
v  20.0000 0.0000 -0.0000
v  -70.0000 0.0000 -35.0000
v  -47.5000 0.0000 -35.0000
v  -25.0000 0.0000 -35.0000
v  -2.5000 0.0000 -35.0000
v  20.0000 0.0000 -35.0000
v  -70.0000 0.0000 -70.0000
v  -47.5000 0.0000 -70.0000
v  -25.0000 0.0000 -70.0000
v  -2.5000 0.0000 -70.0000
v  20.0000 0.0000 -70.0000
# 25 vertices

vn 0.0000 1.0000 -0.0000
# 1 vertex normals

vt 0.0000 0.2500 0.0000
vt 0.0000 0.0000 0.0000
vt 0.2500 0.0000 0.0000
vt 0.2500 0.2500 0.0000
vt 0.5000 0.0000 0.0000
vt 0.5000 0.2500 0.0000
vt 0.7500 0.0000 0.0000
vt 0.7500 0.2500 0.0000
vt 1.0000 0.0000 0.0000
vt 1.0000 0.2500 0.0000
vt 0.0000 0.5000 0.0000
vt 0.2500 0.5000 0.0000
vt 0.5000 0.5000 0.0000
vt 0.7500 0.5000 0.0000
vt 1.0000 0.5000 0.0000
vt 0.0000 0.7500 0.0000
vt 0.2500 0.7500 0.0000
vt 0.5000 0.7500 0.0000
vt 0.7500 0.7500 0.0000
vt 1.0000 0.7500 0.0000
vt 0.0000 1.0000 0.0000
vt 0.2500 1.0000 0.0000
vt 0.5000 1.0000 0.0000
vt 0.7500 1.0000 0.0000
vt 1.0000 1.0000 0.0000
# 25 texture coords

o pisoTierra
g pisoTierra
usemtl Material__25
s 1
f 1/1/1 2/2/1 3/3/1 4/4/1 
f 4/4/1 3/3/1 5/5/1 6/6/1 
f 6/6/1 5/5/1 7/7/1 8/8/1 
f 8/8/1 7/7/1 9/9/1 10/10/1 
f 11/11/1 1/1/1 4/4/1 12/12/1 
f 12/12/1 4/4/1 6/6/1 13/13/1 
f 13/13/1 6/6/1 8/8/1 14/14/1 
f 14/14/1 8/8/1 10/10/1 15/15/1 
f 16/16/1 11/11/1 12/12/1 17/17/1 
f 17/17/1 12/12/1 13/13/1 18/18/1 
f 18/18/1 13/13/1 14/14/1 19/19/1 
f 19/19/1 14/14/1 15/15/1 20/20/1 
f 21/21/1 16/16/1 17/17/1 22/22/1 
f 22/22/1 17/17/1 18/18/1 23/23/1 
f 23/23/1 18/18/1 19/19/1 24/24/1 
f 24/24/1 19/19/1 20/20/1 25/25/1 
# 16 polygons

#
# object pastoUno
#

v  20.0000 0.0000 52.5000
v  20.0000 0.0000 70.0000
v  22.5000 0.0000 70.0000
v  22.5000 0.0000 52.5000
v  25.0000 0.0000 70.0000
v  25.0000 0.0000 52.5000
v  27.5000 0.0000 70.0000
v  27.5000 0.0000 52.5000
v  30.0000 0.0000 70.0000
v  30.0000 0.0000 52.5000
v  20.0000 0.0000 35.0000
v  22.5000 0.0000 35.0000
v  25.0000 0.0000 35.0000
v  27.5000 0.0000 35.0000
v  30.0000 0.0000 35.0000
v  20.0000 0.0000 17.5000
v  22.5000 0.0000 17.5000
v  25.0000 0.0000 17.5000
v  27.5000 0.0000 17.5000
v  30.0000 0.0000 17.5000
v  20.0000 0.0000 -0.0000
v  22.5000 0.0000 -0.0000
v  25.0000 0.0000 -0.0000
v  27.5000 0.0000 -0.0000
v  30.0000 0.0000 -0.0000
# 25 vertices

vn 0.0000 1.0000 -0.0000
# 1 vertex normals

vt 0.0000 0.2500 0.0000
vt 0.0000 0.0000 0.0000
vt 0.2500 0.0000 0.0000
vt 0.2500 0.2500 0.0000
vt 0.5000 0.0000 0.0000
vt 0.5000 0.2500 0.0000
vt 0.7500 0.0000 0.0000
vt 0.7500 0.2500 0.0000
vt 1.0000 0.0000 0.0000
vt 1.0000 0.2500 0.0000
vt 0.0000 0.5000 0.0000
vt 0.2500 0.5000 0.0000
vt 0.5000 0.5000 0.0000
vt 0.7500 0.5000 0.0000
vt 1.0000 0.5000 0.0000
vt 0.0000 0.7500 0.0000
vt 0.2500 0.7500 0.0000
vt 0.5000 0.7500 0.0000
vt 0.7500 0.7500 0.0000
vt 1.0000 0.7500 0.0000
vt 0.0000 1.0000 0.0000
vt 0.2500 1.0000 0.0000
vt 0.5000 1.0000 0.0000
vt 0.7500 1.0000 0.0000
vt 1.0000 1.0000 0.0000
# 25 texture coords

o pastoUno
g pastoUno
usemtl Material__26
s 1
f 26/26/2 27/27/2 28/28/2 29/29/2 
f 29/29/2 28/28/2 30/30/2 31/31/2 
f 31/31/2 30/30/2 32/32/2 33/33/2 
f 33/33/2 32/32/2 34/34/2 35/35/2 
f 36/36/2 26/26/2 29/29/2 37/37/2 
f 37/37/2 29/29/2 31/31/2 38/38/2 
f 38/38/2 31/31/2 33/33/2 39/39/2 
f 39/39/2 33/33/2 35/35/2 40/40/2 
f 41/41/2 36/36/2 37/37/2 42/42/2 
f 42/42/2 37/37/2 38/38/2 43/43/2 
f 43/43/2 38/38/2 39/39/2 44/44/2 
f 44/44/2 39/39/2 40/40/2 45/45/2 
f 46/46/2 41/41/2 42/42/2 47/47/2 
f 47/47/2 42/42/2 43/43/2 48/48/2 
f 48/48/2 43/43/2 44/44/2 49/49/2 
f 49/49/2 44/44/2 45/45/2 50/50/2 
# 16 polygons

#
# object pastoDos
#

v  20.0000 0.0000 -32.5000
v  20.0000 0.0000 -20.0000
v  22.5000 0.0000 -20.0000
v  22.5000 0.0000 -32.5000
v  25.0000 0.0000 -20.0000
v  25.0000 0.0000 -32.5000
v  27.5000 0.0000 -20.0000
v  27.5000 0.0000 -32.5000
v  30.0000 0.0000 -20.0000
v  30.0000 0.0000 -32.5000
v  20.0000 0.0000 -45.0000
v  22.5000 0.0000 -45.0000
v  25.0000 0.0000 -45.0000
v  27.5000 0.0000 -45.0000
v  30.0000 0.0000 -45.0000
v  20.0000 0.0000 -57.5000
v  22.5000 0.0000 -57.5000
v  25.0000 0.0000 -57.5000
v  27.5000 0.0000 -57.5000
v  30.0000 0.0000 -57.5000
v  20.0000 0.0000 -70.0000
v  22.5000 0.0000 -70.0000
v  25.0000 0.0000 -70.0000
v  27.5000 0.0000 -70.0000
v  30.0000 0.0000 -70.0000
# 25 vertices

vn 0.0000 1.0000 -0.0000
# 1 vertex normals

vt 0.0000 0.2500 0.0000
vt 0.0000 0.0000 0.0000
vt 0.2500 0.0000 0.0000
vt 0.2500 0.2500 0.0000
vt 0.5000 0.0000 0.0000
vt 0.5000 0.2500 0.0000
vt 0.7500 0.0000 0.0000
vt 0.7500 0.2500 0.0000
vt 1.0000 0.0000 0.0000
vt 1.0000 0.2500 0.0000
vt 0.0000 0.5000 0.0000
vt 0.2500 0.5000 0.0000
vt 0.5000 0.5000 0.0000
vt 0.7500 0.5000 0.0000
vt 1.0000 0.5000 0.0000
vt 0.0000 0.7500 0.0000
vt 0.2500 0.7500 0.0000
vt 0.5000 0.7500 0.0000
vt 0.7500 0.7500 0.0000
vt 1.0000 0.7500 0.0000
vt 0.0000 1.0000 0.0000
vt 0.2500 1.0000 0.0000
vt 0.5000 1.0000 0.0000
vt 0.7500 1.0000 0.0000
vt 1.0000 1.0000 0.0000
# 25 texture coords

o pastoDos
g pastoDos
usemtl Material__26
s 1
f 51/51/3 52/52/3 53/53/3 54/54/3 
f 54/54/3 53/53/3 55/55/3 56/56/3 
f 56/56/3 55/55/3 57/57/3 58/58/3 
f 58/58/3 57/57/3 59/59/3 60/60/3 
f 61/61/3 51/51/3 54/54/3 62/62/3 
f 62/62/3 54/54/3 56/56/3 63/63/3 
f 63/63/3 56/56/3 58/58/3 64/64/3 
f 64/64/3 58/58/3 60/60/3 65/65/3 
f 66/66/3 61/61/3 62/62/3 67/67/3 
f 67/67/3 62/62/3 63/63/3 68/68/3 
f 68/68/3 63/63/3 64/64/3 69/69/3 
f 69/69/3 64/64/3 65/65/3 70/70/3 
f 71/71/3 66/66/3 67/67/3 72/72/3 
f 72/72/3 67/67/3 68/68/3 73/73/3 
f 73/73/3 68/68/3 69/69/3 74/74/3 
f 74/74/3 69/69/3 70/70/3 75/75/3 
# 16 polygons

#
# object pastoTres
#

v  60.0000 0.0000 -32.5000
v  60.0000 0.0000 -20.0000
v  62.5000 0.0000 -20.0000
v  62.5000 0.0000 -32.5000
v  65.0000 0.0000 -20.0000
v  65.0000 0.0000 -32.5000
v  67.5000 0.0000 -20.0000
v  67.5000 0.0000 -32.5000
v  70.0000 0.0000 -20.0000
v  70.0000 0.0000 -32.5000
v  60.0000 0.0000 -45.0000
v  62.5000 0.0000 -45.0000
v  65.0000 0.0000 -45.0000
v  67.5000 0.0000 -45.0000
v  70.0000 0.0000 -45.0000
v  60.0000 0.0000 -57.5000
v  62.5000 0.0000 -57.5000
v  65.0000 0.0000 -57.5000
v  67.5000 0.0000 -57.5000
v  70.0000 0.0000 -57.5000
v  60.0000 0.0000 -70.0000
v  62.5000 0.0000 -70.0000
v  65.0000 0.0000 -70.0000
v  67.5000 0.0000 -70.0000
v  70.0000 0.0000 -70.0000
# 25 vertices

vn 0.0000 1.0000 -0.0000
# 1 vertex normals

vt 0.0000 0.2500 0.0000
vt 0.0000 0.0000 0.0000
vt 0.2500 0.0000 0.0000
vt 0.2500 0.2500 0.0000
vt 0.5000 0.0000 0.0000
vt 0.5000 0.2500 0.0000
vt 0.7500 0.0000 0.0000
vt 0.7500 0.2500 0.0000
vt 1.0000 0.0000 0.0000
vt 1.0000 0.2500 0.0000
vt 0.0000 0.5000 0.0000
vt 0.2500 0.5000 0.0000
vt 0.5000 0.5000 0.0000
vt 0.7500 0.5000 0.0000
vt 1.0000 0.5000 0.0000
vt 0.0000 0.7500 0.0000
vt 0.2500 0.7500 0.0000
vt 0.5000 0.7500 0.0000
vt 0.7500 0.7500 0.0000
vt 1.0000 0.7500 0.0000
vt 0.0000 1.0000 0.0000
vt 0.2500 1.0000 0.0000
vt 0.5000 1.0000 0.0000
vt 0.7500 1.0000 0.0000
vt 1.0000 1.0000 0.0000
# 25 texture coords

o pastoTres
g pastoTres
usemtl Material__26
s 1
f 76/76/4 77/77/4 78/78/4 79/79/4 
f 79/79/4 78/78/4 80/80/4 81/81/4 
f 81/81/4 80/80/4 82/82/4 83/83/4 
f 83/83/4 82/82/4 84/84/4 85/85/4 
f 86/86/4 76/76/4 79/79/4 87/87/4 
f 87/87/4 79/79/4 81/81/4 88/88/4 
f 88/88/4 81/81/4 83/83/4 89/89/4 
f 89/89/4 83/83/4 85/85/4 90/90/4 
f 91/91/4 86/86/4 87/87/4 92/92/4 
f 92/92/4 87/87/4 88/88/4 93/93/4 
f 93/93/4 88/88/4 89/89/4 94/94/4 
f 94/94/4 89/89/4 90/90/4 95/95/4 
f 96/96/4 91/91/4 92/92/4 97/97/4 
f 97/97/4 92/92/4 93/93/4 98/98/4 
f 98/98/4 93/93/4 94/94/4 99/99/4 
f 99/99/4 94/94/4 95/95/4 100/100/4 
# 16 polygons

#
# object carretera
#

v  30.0000 0.0000 -32.5000
v  30.0000 0.0000 -20.0000
v  37.5000 0.0000 -20.0000
v  37.5000 0.0000 -32.5000
v  45.0000 0.0000 -20.0000
v  45.0000 0.0000 -32.5000
v  52.5000 0.0000 -20.0000
v  52.5000 0.0000 -32.5000
v  60.0000 0.0000 -20.0000
v  60.0000 0.0000 -32.5000
v  30.0000 0.0000 -45.0000
v  37.5000 0.0000 -45.0000
v  45.0000 0.0000 -45.0000
v  52.5000 0.0000 -45.0000
v  60.0000 0.0000 -45.0000
v  30.0000 0.0000 -57.5000
v  37.5000 0.0000 -57.5000
v  45.0000 0.0000 -57.5000
v  52.5000 0.0000 -57.5000
v  60.0000 0.0000 -57.5000
v  30.0000 0.0000 -70.0000
v  37.5000 0.0000 -70.0000
v  45.0000 0.0000 -70.0000
v  52.5000 0.0000 -70.0000
v  60.0000 0.0000 -70.0000
# 25 vertices

vn 0.0000 1.0000 -0.0000
# 1 vertex normals

vt 0.0000 0.2500 0.0000
vt 0.0000 0.0000 0.0000
vt 0.2500 0.0000 0.0000
vt 0.2500 0.2500 0.0000
vt 0.5000 0.0000 0.0000
vt 0.5000 0.2500 0.0000
vt 0.7500 0.0000 0.0000
vt 0.7500 0.2500 0.0000
vt 1.0000 0.0000 0.0000
vt 1.0000 0.2500 0.0000
vt 0.0000 0.5000 0.0000
vt 0.2500 0.5000 0.0000
vt 0.5000 0.5000 0.0000
vt 0.7500 0.5000 0.0000
vt 1.0000 0.5000 0.0000
vt 0.0000 0.7500 0.0000
vt 0.2500 0.7500 0.0000
vt 0.5000 0.7500 0.0000
vt 0.7500 0.7500 0.0000
vt 1.0000 0.7500 0.0000
vt 0.0000 1.0000 0.0000
vt 0.2500 1.0000 0.0000
vt 0.5000 1.0000 0.0000
vt 0.7500 1.0000 0.0000
vt 1.0000 1.0000 0.0000
# 25 texture coords

o carretera
g carretera
usemtl Material__29
s 1
f 101/101/5 102/102/5 103/103/5 104/104/5 
f 104/104/5 103/103/5 105/105/5 106/106/5 
f 106/106/5 105/105/5 107/107/5 108/108/5 
f 108/108/5 107/107/5 109/109/5 110/110/5 
f 111/111/5 101/101/5 104/104/5 112/112/5 
f 112/112/5 104/104/5 106/106/5 113/113/5 
f 113/113/5 106/106/5 108/108/5 114/114/5 
f 114/114/5 108/108/5 110/110/5 115/115/5 
f 116/116/5 111/111/5 112/112/5 117/117/5 
f 117/117/5 112/112/5 113/113/5 118/118/5 
f 118/118/5 113/113/5 114/114/5 119/119/5 
f 119/119/5 114/114/5 115/115/5 120/120/5 
f 121/121/5 116/116/5 117/117/5 122/122/5 
f 122/122/5 117/117/5 118/118/5 123/123/5 
f 123/123/5 118/118/5 119/119/5 124/124/5 
f 124/124/5 119/119/5 120/120/5 125/125/5 
# 16 polygons

#
# object entrada
#

v  20.0000 0.0000 -5.0000
v  20.0000 0.0000 -0.0000
v  32.5000 0.0000 -0.0000
v  32.5000 0.0000 -5.0000
v  45.0000 0.0000 -0.0000
v  45.0000 0.0000 -5.0000
v  57.5000 0.0000 -0.0000
v  57.5000 0.0000 -5.0000
v  70.0000 0.0000 -0.0000
v  70.0000 0.0000 -5.0000
v  20.0000 0.0000 -10.0000
v  32.5000 0.0000 -10.0000
v  45.0000 0.0000 -10.0000
v  57.5000 0.0000 -10.0000
v  70.0000 0.0000 -10.0000
v  20.0000 0.0000 -15.0000
v  32.5000 0.0000 -15.0000
v  45.0000 0.0000 -15.0000
v  57.5000 0.0000 -15.0000
v  70.0000 0.0000 -15.0000
v  20.0000 0.0000 -20.0000
v  32.5000 0.0000 -20.0000
v  45.0000 0.0000 -20.0000
v  57.5000 0.0000 -20.0000
v  70.0000 0.0000 -20.0000
# 25 vertices

vn 0.0000 1.0000 -0.0000
# 1 vertex normals

vt 0.0000 0.2500 0.0000
vt 0.0000 0.0000 0.0000
vt 0.2500 0.0000 0.0000
vt 0.2500 0.2500 0.0000
vt 0.5000 0.0000 0.0000
vt 0.5000 0.2500 0.0000
vt 0.7500 0.0000 0.0000
vt 0.7500 0.2500 0.0000
vt 1.0000 0.0000 0.0000
vt 1.0000 0.2500 0.0000
vt 0.0000 0.5000 0.0000
vt 0.2500 0.5000 0.0000
vt 0.5000 0.5000 0.0000
vt 0.7500 0.5000 0.0000
vt 1.0000 0.5000 0.0000
vt 0.0000 0.7500 0.0000
vt 0.2500 0.7500 0.0000
vt 0.5000 0.7500 0.0000
vt 0.7500 0.7500 0.0000
vt 1.0000 0.7500 0.0000
vt 0.0000 1.0000 0.0000
vt 0.2500 1.0000 0.0000
vt 0.5000 1.0000 0.0000
vt 0.7500 1.0000 0.0000
vt 1.0000 1.0000 0.0000
# 25 texture coords

o entrada
g entrada
usemtl Material__27
s 1
f 126/126/6 127/127/6 128/128/6 129/129/6 
f 129/129/6 128/128/6 130/130/6 131/131/6 
f 131/131/6 130/130/6 132/132/6 133/133/6 
f 133/133/6 132/132/6 134/134/6 135/135/6 
f 136/136/6 126/126/6 129/129/6 137/137/6 
f 137/137/6 129/129/6 131/131/6 138/138/6 
f 138/138/6 131/131/6 133/133/6 139/139/6 
f 139/139/6 133/133/6 135/135/6 140/140/6 
f 141/141/6 136/136/6 137/137/6 142/142/6 
f 142/142/6 137/137/6 138/138/6 143/143/6 
f 143/143/6 138/138/6 139/139/6 144/144/6 
f 144/144/6 139/139/6 140/140/6 145/145/6 
f 146/146/6 141/141/6 142/142/6 147/147/6 
f 147/147/6 142/142/6 143/143/6 148/148/6 
f 148/148/6 143/143/6 144/144/6 149/149/6 
f 149/149/6 144/144/6 145/145/6 150/150/6 
# 16 polygons

#
# object estacionamiento
#

v  30.0000 0.0000 52.5000
v  30.0000 0.0000 70.0000
v  40.0000 0.0000 70.0000
v  40.0000 0.0000 52.5000
v  50.0000 0.0000 70.0000
v  50.0000 0.0000 52.5000
v  60.0000 0.0000 70.0000
v  60.0000 0.0000 52.5000
v  70.0000 0.0000 70.0000
v  70.0000 0.0000 52.5000
v  30.0000 0.0000 35.0000
v  40.0000 0.0000 35.0000
v  50.0000 0.0000 35.0000
v  60.0000 0.0000 35.0000
v  70.0000 0.0000 35.0000
v  30.0000 0.0000 17.5000
v  40.0000 0.0000 17.5000
v  50.0000 0.0000 17.5000
v  60.0000 0.0000 17.5000
v  70.0000 0.0000 17.5000
v  30.0000 0.0000 -0.0000
v  40.0000 0.0000 -0.0000
v  50.0000 0.0000 -0.0000
v  60.0000 0.0000 -0.0000
v  70.0000 0.0000 -0.0000
# 25 vertices

vn 0.0000 1.0000 -0.0000
# 1 vertex normals

vt 0.0000 0.2500 0.0000
vt 0.0000 0.0000 0.0000
vt 0.2500 0.0000 0.0000
vt 0.2500 0.2500 0.0000
vt 0.5000 0.0000 0.0000
vt 0.5000 0.2500 0.0000
vt 0.7500 0.0000 0.0000
vt 0.7500 0.2500 0.0000
vt 1.0000 0.0000 0.0000
vt 1.0000 0.2500 0.0000
vt 0.0000 0.5000 0.0000
vt 0.2500 0.5000 0.0000
vt 0.5000 0.5000 0.0000
vt 0.7500 0.5000 0.0000
vt 1.0000 0.5000 0.0000
vt 0.0000 0.7500 0.0000
vt 0.2500 0.7500 0.0000
vt 0.5000 0.7500 0.0000
vt 0.7500 0.7500 0.0000
vt 1.0000 0.7500 0.0000
vt 0.0000 1.0000 0.0000
vt 0.2500 1.0000 0.0000
vt 0.5000 1.0000 0.0000
vt 0.7500 1.0000 0.0000
vt 1.0000 1.0000 0.0000
# 25 texture coords

o estacionamiento
g estacionamiento
usemtl Material__28
s 1
f 151/151/7 152/152/7 153/153/7 154/154/7 
f 154/154/7 153/153/7 155/155/7 156/156/7 
f 156/156/7 155/155/7 157/157/7 158/158/7 
f 158/158/7 157/157/7 159/159/7 160/160/7 
f 161/161/7 151/151/7 154/154/7 162/162/7 
f 162/162/7 154/154/7 156/156/7 163/163/7 
f 163/163/7 156/156/7 158/158/7 164/164/7 
f 164/164/7 158/158/7 160/160/7 165/165/7 
f 166/166/7 161/161/7 162/162/7 167/167/7 
f 167/167/7 162/162/7 163/163/7 168/168/7 
f 168/168/7 163/163/7 164/164/7 169/169/7 
f 169/169/7 164/164/7 165/165/7 170/170/7 
f 171/171/7 166/166/7 167/167/7 172/172/7 
f 172/172/7 167/167/7 168/168/7 173/173/7 
f 173/173/7 168/168/7 169/169/7 174/174/7 
f 174/174/7 169/169/7 170/170/7 175/175/7 
# 16 polygons

